<svg id="Layer_1" data-name="Layer 1" xmlns="http://www.w3.org/2000/svg" viewBox="0 0 92.01 66.76"><defs><style>.cls-1{fill:#313820;}.cls-2{fill:#1d1d1b;}</style></defs><title>logo-02</title><path class="cls-1" d="M17.67,17.7c-.09,1.37-1,2.74-1.74,4-.14.38-.52.28-.71-.14-1-2.22-2.49-3.63-4.85-3.25-2.64.42-3.91,2.59-4.53,5-1.32,5.19-1.22,5.23,3.73,5.37.85.05,1.74.05,2.59.1.57,0,1,.33.71.94-.14.33-.38.47-.95.38-2-.14-4,0-6.08-.05C5.14,30,5,30.57,5,31.18c.09,5.7.18,11.45.33,17.2a2,2,0,0,0,1.36,1.84,1.7,1.7,0,0,1,.47.52c-.23.09-.42.33-.66.33-1.55,0-3.11,0-4.61,0-.43,0-.95,0-1-.66s.47-.38.8-.47c1.08-.43,1-1.51,1-2.36,0-5.66.23-11.26-.38-16.87C2.17,29.34.19,30.05,0,28.45c3,.52,2.22-2.17,2.54-3.77.76-4.1,6.51-8.25,10.7-7.59.62.09,1.28.19,1.89.33C16,17.66,17.72,17,17.67,17.7Z"/><path class="cls-1" d="M26.15,50.17c.52.52.24.9-.33.95a29.68,29.68,0,0,1-3.53.14c-.57,0-.71-.47-.38-.85,1.28-1.65,1-3.53.57-5.42V21.52A5.9,5.9,0,0,0,21.77,19c-.23-.42-1.13-.8-.38-1.31A3.83,3.83,0,0,1,25,17.42c.71.28-.18.8-.33,1.23-.42,1.08,0,2.12,0,3.2,0,7.92,0,15.88,0,23.85A6.14,6.14,0,0,0,26.15,50.17Z"/><path class="cls-1" d="M48.59,37.92c-.05.85-.33,1-1.09,1-4,0-8.15,0-12.2,0-2.78,0-3.54,1-2.59,3.73,2,6.08,6.4,8.06,12.15,5.28,1-.48,1.51-1.65,2.27-2.55.19-.24.33-.66.7-.38.15.1.15.52.05.76-1.7,5-7.4,6.93-12.06,4.66a10.3,10.3,0,0,1-4.39-4,15.09,15.09,0,0,1-1.74-7.45,9.55,9.55,0,0,1,12-9.42C45.05,30.19,48.68,34.72,48.59,37.92Zm-4.2,0a1.72,1.72,0,0,0,.85-.19c.8-.61-.28-3.21-.61-3.87a5.63,5.63,0,0,0-2.83-2.78c-3.63-1.55-8.62,1.56-9.19,5.57-.14.8.24,1.13,1,1.08,3.54,0,7,.14,10.56.19Z"/><path class="cls-1" d="M72.34,51c0,.24-.47.19-.8.19-1.65,0-3.11.52-3.35-1.37-.09-.8-.75-.28-1.08,0a9.28,9.28,0,0,1-7.5,1.32c-3.81-.85-5.75-3.54-5.79-7.5,0-2.07,0-4.14,0-6.17s.28-3.86-.47-5.75c-.14-.33-1.32-2-.1-2h2.69c.47,0,.57.57.57.95-.05,2.26-.05,4.57,0,6.88,0,3.15.18,6.27.33,9.42.18,3,2.45,3.58,5,3.54,3.39-.05,6.22-1.84,6.27-4.24s0-4.62,0-6.93c0-1.51,0-3-.1-4.53a6.2,6.2,0,0,0-.85-3.67c-.18-.24-1.46-1.27-.66-1.37a29,29,0,0,1,3.49,0c.57,0,.62.57.62,1.27,0,5.61,0,11.27.28,16.88C71,50.27,72.39,50.36,72.34,51Z"/><path class="cls-1" d="M92,34.9a.93.93,0,0,1-.57.9c-.66.28-1.22.47-1.88.75-.28.1-.57-.18-.38-.28.38-.28.19-1.41.19-1.84.05-2.16-2.17-3.48-4.19-3.11A7.51,7.51,0,0,0,80.25,35a8.44,8.44,0,0,0-.61,3.44c0,2.22-.14,4.43-.09,6.69a23.21,23.21,0,0,0,0,3.12c.19,1.32.8,1.64,1.84,2.3-.24.19-.33.29-.43.29a27,27,0,0,1-2.73.14c-.14,0-2.45.23-1.74-.57.09-.14.33-.14.47-.23,1.18-.61.8-3.87.8-4.9.05-1.94,0-3.87,0-5.8a71.7,71.7,0,0,0,0-8.39.83.83,0,0,0-.89-.75c-.28,0-.47-.15-.38-.43,0-.09.28-.19.43-.19.94-.09,1.88-.14,2.87-.18.38,0,.76,0,.9.51-.33.19-.62.33-.9.47,0,1.14.1,2.27.14,3.35a2.34,2.34,0,0,0,.24.09l.42-.42c1.79-2.21,5-4.24,7.92-3.72a4.17,4.17,0,0,1,3.3,2.73A5.85,5.85,0,0,1,92,34.9Z"/><path class="cls-2" d="M12.85,61.91a.31.31,0,0,1,0,.12s-.11,0-.12-.07a1.11,1.11,0,0,0-1.13-.69c-.58,0-1.2,0-1.78,0a.31.31,0,0,0-.3.34l0,2c0,.11,0,.18.16.18.67,0,1.37.12,1.9-.46,0-.06.1,0,.1,0a2.81,2.81,0,0,1,0,.29c0,.08,0,.16,0,.25s0,.22,0,.28-.4-.09-.49-.14a2.36,2.36,0,0,0-1.51,0c-.24,0-.13.26-.15.41s0,.37,0,.56a2.25,2.25,0,0,0,.29,1.52c.08.09,0,.16-.08.17l-.93,0c-.07,0-.12,0-.06-.11C9.24,66,9,65.18,9,64.46S9,63.07,9,62.37a1,1,0,0,0-.41-.93c-.15-.08.07-.28.16-.28,1.26,0,2.13,0,3.25,0h.19C12.91,61.12,12.94,61.15,12.85,61.91Z"/><path class="cls-2" d="M18.68,66.22c.08.34,0,.44-.4.46a19.85,19.85,0,0,0-2.78,0,2,2,0,0,1-.49,0s-.1,0-.1-.06a.18.18,0,0,1,0-.13c.31-.13.3-.41.3-.67,0-1.32,0-2.64-.07-4a.5.5,0,0,0-.32-.46c-.06,0-.15,0-.12-.13a.21.21,0,0,1,.15-.11,3.83,3.83,0,0,1,1.22,0s.08.06.12.09a.58.58,0,0,1-.1.12.65.65,0,0,0-.41.65c-.05,1.41,0,2.82.06,4.22,0,.13,0,.22.18.22a11.8,11.8,0,0,1,1.33,0,1.16,1.16,0,0,0,1.21-.76s.07-.08.09-.07.09.13.1.21S18.68,66.13,18.68,66.22Z"/><path class="cls-2" d="M25.68,63.12a3.68,3.68,0,0,1-.36,2.32,2.44,2.44,0,0,1-1,1,3.28,3.28,0,0,1-1.81.22,2.45,2.45,0,0,1-2-1.47,3.21,3.21,0,0,1,0-2.49,2.71,2.71,0,0,1,4.24-1.17,2.33,2.33,0,0,1,.82,1.17A2.79,2.79,0,0,1,25.68,63.12Zm-1.2,2.76A3.23,3.23,0,0,0,25,63.59a3.17,3.17,0,0,0-.91-2,1.8,1.8,0,0,0-1.6-.39c-.95.26-1.3,1.31-1.43,2.11a3.62,3.62,0,0,0,.48,2.6,1.64,1.64,0,0,0,.66.56A1.78,1.78,0,0,0,24.48,65.88Z"/><path class="cls-2" d="M29.64,65.38c.12-.36.23-.74.35-1.1s.22-.62.32-.94.24-.71.35-1.06.19-.59.29-.88l0,0a.42.42,0,0,1,.07-.13.26.26,0,0,1,.15,0c.12,0,.26.27.32.46s.09.35.14.53q.17.59.36,1.17c.25.77.54,1.53.86,2.28a2.91,2.91,0,0,0,.27-.69c.3-1.07.61-2.16.91-3.24a.45.45,0,0,0,0-.28c0-.15-.23-.19-.38-.23,0-.08.12,0,.2,0,.35,0,.64,0,1,0,.06,0,.1,0,0,0a.9.9,0,0,0-.58.43,2.87,2.87,0,0,0-.29.7c-.2.7-.41,1.39-.61,2.09s-.35,1.33-.56,2c-.07.25-.21.33-.44.27A32,32,0,0,0,31,62.38l-.11-.33s-.05.06-.05.08l-.06.14a1.55,1.55,0,0,0-.08.23c0,.08-.06.16-.07.23s0,.12-.07.18,0,.06,0,.08a.46.46,0,0,1,0,.09c-.1.32-.2.62-.29.94L30,65c-.05.18-.11.35-.17.52a6.44,6.44,0,0,1-.37,1c0,.09-.13.21-.24.17a.17.17,0,0,1-.11-.11,3.09,3.09,0,0,1-.18-.51c-.35-1.3-.71-2.59-1.06-3.89a1.61,1.61,0,0,0-.36-.81s-.09,0-.14-.07-.11-.07-.08-.1h1.33s.09,0,.12,0,0,.07,0,.08-.19,0-.26.09-.11.56,0,.79c.11.38.22.77.32,1.17.22.8.44,1.62.71,2.41,0,0,.07.15.06.17C29.51,65.71,29.59,65.55,29.64,65.38Z"/><path class="cls-2" d="M37.85,62c0,.48,0,1,0,1.43,0,.26,0,.41.34.38a2.6,2.6,0,0,0,1.39-.28c.12-.08.16-.36.31-.24s.05.34.06.51v.68c-.49-.67-1.12-.48-1.68-.51-.37,0-.46.15-.44.5,0,.59,0,1.18,0,1.77,0,.1,0,.23.11.24a4.79,4.79,0,0,0,2.13-.12,1.33,1.33,0,0,0,.5-.5s.07-.06.1-.09.07.08.07.13c0,.22.05.45.07.67s-.08.15-.17.14l-2.31,0c-.32,0-.65,0-1,0-.13,0-.3,0-.34-.14s.13-.18.21-.24a.38.38,0,0,0,.17-.35c0-1.3.07-2.6-.07-3.9,0-.33-.1-.65-.51-.7,0,0,0,0-.08-.08s.09-.08.14-.08l3.77,0a.15.15,0,0,1,.16.17,1,1,0,0,1,0,.3c0,.2.1.49-.07.57s-.1-.24-.23-.36a3,3,0,0,0-2.11-.49C37.9,61.39,37.83,61.58,37.85,62Z"/><path class="cls-2" d="M47.3,66.72A1.36,1.36,0,0,1,45.74,66c-.28-.56-.24-1.28-.93-1.61-.29-.15-1.33-.34-1.35.13a6.62,6.62,0,0,0,0,1.54.8.8,0,0,0,.18.42s.08.07.05.11a.08.08,0,0,1-.07,0,4.15,4.15,0,0,1-.79,0c-.06,0-.36,0-.33-.08a.15.15,0,0,1,.08-.08,1,1,0,0,0,.3-.22c.21-.27.12-.72.13-1s0-.65,0-1c0-.62,0-1.23,0-1.84,0-.38.13-1.15-.35-1.21-.1,0-.08-.07,0-.07a6,6,0,0,1,.75,0l1,0a4.12,4.12,0,0,1,1.2.19,1.82,1.82,0,0,1,1,.65,1.37,1.37,0,0,1-.54,1.82,5.74,5.74,0,0,0-.55.34l.1.06c.36.27.36.74.41,1.12a1.47,1.47,0,0,0,.4.83,2.12,2.12,0,0,0,.38.29,1.13,1.13,0,0,0,.21.12A1.45,1.45,0,0,0,47.3,66.72Zm-1-3.75a1.24,1.24,0,0,0-.74-1.35,4,4,0,0,0-1.93-.19c-.13,0-.11.13-.12.22,0,.47,0,.94,0,1.42,0,.25,0,.51,0,.76a.15.15,0,0,0,.16.18,7.52,7.52,0,0,0,1.5,0A1.26,1.26,0,0,0,46.29,63Z"/><path class="cls-2" d="M55.71,66.63l.32,0a2.28,2.28,0,0,1-2.1-.23,2.82,2.82,0,0,1-.6-.54c-.17-.17.1-.28.18-.42s.13-.3.26-.27.1.22.12.35A1.55,1.55,0,0,0,55.71,66.63Zm.72-.15c-.07,0-.16.16-.21.06s.11-.12.19-.16a1.15,1.15,0,0,0,.73-1,1.17,1.17,0,0,0-.75-1.11c-.7-.36-1.49-.41-2.17-.8a1.12,1.12,0,0,1-.07-2.08,2.83,2.83,0,0,1,2.89.09c.1.07.13.13.07.25a1.05,1.05,0,0,1-.45.46c.06-.48-.39-.56-.65-.73a1.45,1.45,0,0,0-1.95.25c-.32.31-.13,1.1.33,1.42a4,4,0,0,0,1.64.49,1.89,1.89,0,0,1,1.33,1.24A1.45,1.45,0,0,1,56.43,66.48Z"/><path class="cls-2" d="M63.58,61.76a.52.52,0,0,1,0,.18c0,.11-.08,0-.12,0a.69.69,0,0,0-.11-.13,1.74,1.74,0,0,0-1.1-.45H62c-.05,0-.12,0-.16,0a.16.16,0,0,0,0,.07,2.46,2.46,0,0,0,0,.26c-.09,1.41-.05,2.82,0,4.24,0,.18,0,.45.21.53s.07.05.12.06.07.1,0,.16H60.88c-.14,0-.07-.12,0-.17a.74.74,0,0,0,.27-.69c0-.73,0-1.47,0-2.2V62c0-.1,0-.22,0-.32a1,1,0,0,0,0-.35c0-.07-.1-.08-.16-.09-.58-.08-1.3,0-1.56.58,0,0,0,0,0,0s0,0,0,0-.24-.75.06-.75l2,0c1,0,1.27,0,2,0a.2.2,0,0,1,.18.17A1.41,1.41,0,0,1,63.58,61.76Z"/><path class="cls-2" d="M69.91,61.28a.3.3,0,0,0-.22.16.64.64,0,0,0,0,.28c0,.23,0,.47,0,.7,0,.48,0,1,0,1.45A3.49,3.49,0,0,1,69.06,66a1.74,1.74,0,0,1-2.45.31A2.81,2.81,0,0,1,65.88,65a5.65,5.65,0,0,1-.1-1.48l0-1.46c0-.2,0-.42-.18-.51s-.24-.07-.24-.17h0c0-.08.11-.11.18-.13a2.64,2.64,0,0,1,.74,0,.46.46,0,0,1,.2,0,.15.15,0,0,1,.06.17c0,.09-.14.1-.22.16a.46.46,0,0,0-.12.37c0,.65,0,1.29,0,1.94,0,.32,0,.65.06,1a2.32,2.32,0,0,0,.35,1,1.1,1.1,0,0,0,.41.47,1.3,1.3,0,0,0,.75.14,1.22,1.22,0,0,0,1.27-.82,7.08,7.08,0,0,0,.41-3.23v-.17c0-.17,0-.33,0-.5a.4.4,0,0,0-.11-.3c-.07,0-.16,0-.17-.12s.07-.12.14-.13a2.08,2.08,0,0,1,.42,0,.31.31,0,0,1,.13,0S69.92,61.25,69.91,61.28Z"/><path class="cls-2" d="M76.33,64.32a2.6,2.6,0,0,1-1.08,2,3.12,3.12,0,0,1-1.94.42c-.37,0-.74,0-1.11,0l-.35,0v0c.31-.07.2-.51.19-.74,0-.47,0-.94,0-1.41,0-.95,0-1.89.06-2.84,0-.08,0-.13-.08-.16l-.24-.09v-.06c0-.19,0-.19.21-.19a6.5,6.5,0,0,1,2.41.18A3.06,3.06,0,0,1,76,62.78,3.59,3.59,0,0,1,76.33,64.32Zm-.62-.2A3.9,3.9,0,0,0,75,62.06a1.34,1.34,0,0,0-.84-.59,4.29,4.29,0,0,0-.71-.08c-.22,0-.43,0-.64,0s-.19,0-.2.2c0,1.3,0,2.61,0,3.92,0,.19,0,.38,0,.57s0,.12,0,.18c0,.23,0,.28.17.36h.34a3.27,3.27,0,0,0,1.48-.23,2.05,2.05,0,0,0,1-1.1A2.6,2.6,0,0,0,75.71,64.12Z"/><path class="cls-2" d="M79.09,62.12c0,1.34,0,2.66,0,4,0,.21.18.28.22.44s.06.15,0,.15a1.61,1.61,0,0,1-.86-.09c.54-.37.3-.9.32-1.35,0-1.08,0-2.17,0-3.26a.65.65,0,0,0-.44-.66s-.06,0-.09-.07.06-.06.09-.06h1l.15.06s0,.12-.08.14A.82.82,0,0,0,79.09,62.12Z"/><path class="cls-2" d="M86.71,63.12a3.68,3.68,0,0,1-.37,2.32,2.36,2.36,0,0,1-1,1,3.3,3.3,0,0,1-1.82.22,2.46,2.46,0,0,1-2-1.47,3.17,3.17,0,0,1,0-2.49,2.71,2.71,0,0,1,4.24-1.17,2.33,2.33,0,0,1,.82,1.17C86.65,62.86,86.68,63,86.71,63.12ZM85.5,65.88a3.57,3.57,0,0,0-.35-4.32,1.8,1.8,0,0,0-1.6-.39c-1,.26-1.3,1.31-1.44,2.11a3.67,3.67,0,0,0,.49,2.6,1.68,1.68,0,0,0,.65.56A1.77,1.77,0,0,0,85.5,65.88Z"/><path class="cls-2" d="M42,1.09a.81.81,0,0,1-.06.31c-.08.18-.13,0-.2-.08a.72.72,0,0,0-.18-.21A2.87,2.87,0,0,0,39.7.37h-.32c-.08,0-.2,0-.27,0a.22.22,0,0,0,0,.11A2.28,2.28,0,0,0,39,1c-.15,2.34-.08,4.7-.06,7,0,.31,0,.76.35.89.1,0,.12.08.2.11s.13.16,0,.25,0,0,0,0h-2c-.23,0-.12-.2,0-.28a1.23,1.23,0,0,0,.45-1.15c0-1.22,0-2.45,0-3.68V2.67c0-.36,0-.74,0-1.11,0-.17,0-.36,0-.53a1.61,1.61,0,0,0,0-.58c0-.12-.18-.14-.28-.15-1-.14-2.16,0-2.59,1,0,0,0,.08-.09.08a.09.09,0,0,1-.07-.05C34.75,1.08,34.5,0,35,0c1.11,0,2.22,0,3.34,0,1.63,0,2.12,0,3.27.07a.33.33,0,0,1,.31.28A3.12,3.12,0,0,1,42,1.09Z"/><path class="cls-2" d="M51,9.12a7.84,7.84,0,0,1-2,.07s-.08-.07-.08-.08S49,9,49,9c.58-.1.61-.54.61-1,0-.73,0-1.46,0-2.19,0-.29-.11-.43-.42-.43H44.75c-.27,0-.38.08-.38.34,0,.76,0,1.52-.06,2.29,0,.41,0,.78.47,1,0,0,.11.12.09.13s-.12.14-.19.14H43.26c-.18,0-.3-.19-.15-.25.81-.39.51-1.14.52-1.71,0-2.11,0-4.22,0-6.32,0-.24-.16-.35-.37-.45S42.93.49,43,.3s.23-.11.35-.12a4.9,4.9,0,0,1,2,.17c-1,.38-.93,1.11-.92,1.82V4.7c0,.27.08.38.37.39,1.48,0,2.94-.32,4.44-.16.24,0,.34-.2.32-.39-.13-1.2.12-2.42-.31-3.58a.74.74,0,0,0-.17-.3C49,.54,48.7.46,48.81.23s.37-.23.63-.21.74,0,1.12,0a.41.41,0,0,1,.29.15c.08.15-.09.18-.19.24a.51.51,0,0,0-.24.45c0,1.71-.12,3.41,0,5.12a13.8,13.8,0,0,1-.11,1.68A1.65,1.65,0,0,0,51,9.12Z"/><path class="cls-2" d="M54,1.48c0,.8,0,1.59,0,2.39,0,.43.08.67.58.63A4.34,4.34,0,0,0,56.8,4c.2-.14.26-.59.51-.4s.08.56.1.86,0,.67,0,1.13c-.81-1.12-1.86-.81-2.8-.85-.61,0-.76.24-.73.84,0,1,0,2,0,2.94,0,.17,0,.38.19.4a7.76,7.76,0,0,0,3.55-.21,2,2,0,0,0,.82-.82,1.29,1.29,0,0,1,.18-.16c0,.07.12.15.12.23.06.36.07.74.11,1.12s-.14.24-.28.23l-3.86-.09c-.53,0-1.07.07-1.62.09-.22,0-.5,0-.58-.25s.21-.29.36-.39a.67.67,0,0,0,.28-.59c0-2.17.11-4.34-.12-6.49C53,1.07,52.87.53,52.18.45c0,0-.09-.1-.13-.14s.15-.13.23-.13c2.08,0,4.19,0,6.29,0a.25.25,0,0,1,.27.27,2.9,2.9,0,0,1,0,.51c0,.33.16.81-.13.95s-.16-.41-.37-.6A5,5,0,0,0,54.81.46C54,.47,53.91.8,54,1.48Z"/></svg>